<svg id="Layer_1" data-name="Layer 1" xmlns="http://www.w3.org/2000/svg" viewBox="0 0 80 40"><defs><style>.cls-1{fill:#ff0008;}.cls-2{fill:#fff;}</style></defs><rect class="cls-1" width="80" height="40" rx="3.5"/><path class="cls-1" d="M22.46,5.72A9.23,9.23,0,0,1,25,6.1a7.67,7.67,0,0,1,2.08,1c.23.16.44.36.66.54a4.51,4.51,0,0,1,.8.89,5.88,5.88,0,0,1,.79,1.61,7.39,7.39,0,0,1,.28,1.4l0,.39c0,.18,0,.35,0,.53a8.74,8.74,0,0,1-.07,1c0,.42-.14.83-.23,1.24a10.28,10.28,0,0,1-.63,1.79,14.59,14.59,0,0,1-1,1.95,18.6,18.6,0,0,1-1.22,1.69q-.3.38-.63.72c-.31.33-.62.66-.95,1s-.56.5-.85.75-.66.56-1,.82-.94.73-1.42,1.07-.73.53-1.11.77a17.74,17.74,0,0,1-1.63.95,10.81,10.81,0,0,1-2.51,1c-.28.06-.57.08-.85.12A2.58,2.58,0,0,1,14,27a2.73,2.73,0,0,1-.56-.4,2.31,2.31,0,0,1-.65-1,2.23,2.23,0,0,1-.14-.67,4.12,4.12,0,0,1,.06-.93,6.44,6.44,0,0,1,.28-.88c.12-.31.26-.6.4-.89A7.58,7.58,0,0,1,14.16,21a4.43,4.43,0,0,1,.76-.8,3.82,3.82,0,0,1,.72-.49,2.89,2.89,0,0,1,1.78-.29,2.17,2.17,0,0,1,1,.37.89.89,0,0,1,.42.91,1.15,1.15,0,0,1-.12.37,3.69,3.69,0,0,1-.53.76c-.58.63-1.21,1.2-1.8,1.82a7.79,7.79,0,0,0-1.15,1.46,1.94,1.94,0,0,0-.26.61c-.09.51.25.81.75.76a4.61,4.61,0,0,0,1.38-.43,15.21,15.21,0,0,0,2.38-1.38c.59-.41,1.16-.85,1.73-1.29.3-.24.57-.51.86-.75a19.44,19.44,0,0,0,1.46-1.41,14.16,14.16,0,0,0,1.71-2.15A8.7,8.7,0,0,0,26.48,16a4,4,0,0,0,.07-1A3.92,3.92,0,0,0,26,13.09a2,2,0,0,0-1.24-.88,2.59,2.59,0,0,0-.56-.05,4.3,4.3,0,0,0-1.42.26,7.15,7.15,0,0,0-.77.29l-1,.5a21.53,21.53,0,0,0-1.86,1.09l-2.16,1.4c-.82.55-1.63,1.11-2.41,1.71-.46.36-.94.69-1.42,1a6.85,6.85,0,0,1-1.42.74,3.21,3.21,0,0,1-2,.14A2.13,2.13,0,0,1,9,19a3.78,3.78,0,0,1-.73-.59,2.48,2.48,0,0,1-.62-1.09,2.33,2.33,0,0,1-.11-.74,3.92,3.92,0,0,1,.16-1.08,6.81,6.81,0,0,1,.86-1.78c.28-.42.58-.82.89-1.22.16-.2.34-.39.52-.58s.51-.53.78-.78.53-.49.81-.71.76-.61,1.16-.9,1-.64,1.44-1a17.43,17.43,0,0,1,2.07-1.14c.52-.25,1.06-.47,1.59-.69.37-.15.75-.28,1.13-.4a10.93,10.93,0,0,1,1.79-.46c.33-.06.66-.1,1-.14S22.21,5.74,22.46,5.72Z"/><path class="cls-1" d="M38.59,16.84a3.67,3.67,0,0,0-.06-1.05,1,1,0,0,0-.69-.68,3,3,0,0,0-1.11,0,6.21,6.21,0,0,0-1.89.59l-.19.09A13,13,0,0,1,34,14.28l.42-.21a7.78,7.78,0,0,1,2.2-.72A4.93,4.93,0,0,1,39,13.5a2.87,2.87,0,0,1,2,2.33,7,7,0,0,1,.07.8V21.7a.42.42,0,0,1-.16.35,5.36,5.36,0,0,1-2.58,1.24,6.58,6.58,0,0,1-1.59.14,3.66,3.66,0,0,1-2.7-1.28,3.22,3.22,0,0,1-.45-3.54,3,3,0,0,1,1.69-1.45,5.13,5.13,0,0,1,1.82-.32h1.47Zm0,1.68H37.3a.86.86,0,0,0-.17,0,1.45,1.45,0,0,0-1.15,1,2,2,0,0,0,0,1.37,1.23,1.23,0,0,0,1,.81,2.43,2.43,0,0,0,1.45-.22c.1,0,.12-.11.12-.22V18.67A.81.81,0,0,0,38.58,18.52Z"/><path class="cls-1" d="M67,22.3a6.72,6.72,0,0,1-1.4.74,5.85,5.85,0,0,1-2.78.39,3.79,3.79,0,0,1-3.2-2.31,6.07,6.07,0,0,1-.54-3,6.59,6.59,0,0,1,.53-2.4A4.06,4.06,0,0,1,60.92,14a3.4,3.4,0,0,1,1.77-.62,4.76,4.76,0,0,1,1.55.11,3,3,0,0,1,2.12,1.82A5.67,5.67,0,0,1,66.8,17c0,.48.07,1,.1,1.45a.64.64,0,0,1,0,.19H61.58a2.71,2.71,0,0,0,0,.4,4.57,4.57,0,0,0,.21,1.42,1.65,1.65,0,0,0,1.51,1.22,4.39,4.39,0,0,0,2.23-.4c.25-.11.48-.25.75-.39Zm-5.3-5.2h2.66l0-.05a3,3,0,0,0-.22-1.19,1.07,1.07,0,0,0-.52-.57,1.24,1.24,0,0,0-1.49.35,2.13,2.13,0,0,0-.3.58A2.85,2.85,0,0,0,61.65,17.1Z"/><path class="cls-1" d="M54,11.15l2.51-.41c0,.91,0,1.8,0,2.71h1.6a15.18,15.18,0,0,1,0,1.8H56.51c0,.06,0,.11,0,.16v5a2.28,2.28,0,0,0,0,.45,1,1,0,0,0,.87.84,4.38,4.38,0,0,0,.52,0,1.08,1.08,0,0,0,.18,0,13,13,0,0,1,0,1.53,5,5,0,0,1-1.45.06,3.72,3.72,0,0,1-1-.21,2.46,2.46,0,0,1-1.62-2,4.77,4.77,0,0,1-.08-.92q0-4.45,0-8.9Z"/><path class="cls-1" d="M72.5,21.72v1.54l-.32,0a4.45,4.45,0,0,1-1.92-.13,2.37,2.37,0,0,1-1.72-1.87,4.39,4.39,0,0,1-.11-1.09V11.33a1.09,1.09,0,0,1,0-.18l2.45-.42V11q0,4.69,0,9.39a3.31,3.31,0,0,0,0,.55.83.83,0,0,0,.57.69,2.1,2.1,0,0,0,.74.13Z"/><path class="cls-1" d="M49.91,23.25h-2.5a.76.76,0,0,1,0-.15V15.35a.27.27,0,0,1,.07-.22,5.87,5.87,0,0,1,2.87-1.68,5.27,5.27,0,0,1,2.73.05l.23.09-.69,1.55a3.24,3.24,0,0,0-1.07-.09,2.91,2.91,0,0,0-1.46.48.34.34,0,0,0-.17.33v7.39Z"/><path class="cls-1" d="M45.4,13.45v9.8H43v-9.4Z"/><path class="cls-1" d="M44.18,12.65a1.56,1.56,0,0,1-1.56-1.54,1.59,1.59,0,0,1,1.6-1.59,1.57,1.57,0,0,1,0,3.13Z"/><path class="cls-1" d="M39.09,28.68c0-.33,0-.62,0-.89a.37.37,0,0,1,.37-.39h0a.37.37,0,0,1,.37.35l0,.41h0a1.65,1.65,0,0,1,1.49-.87,1.38,1.38,0,0,1,1.33.95h0a1.93,1.93,0,0,1,.53-.62,1.62,1.62,0,0,1,1-.33c.63,0,1.55.41,1.55,2.05v2.75a0,0,0,0,1,0,0H45a0,0,0,0,1,0,0V29.45c0-.91-.33-1.46-1-1.46a1.1,1.1,0,0,0-1,.78,1.43,1.43,0,0,0-.07.43v2.89a0,0,0,0,1,0,0h-.77a0,0,0,0,1,0,0v-2.8c0-.75-.33-1.3-1-1.3a1.18,1.18,0,0,0-1.06.86,1.16,1.16,0,0,0-.07.42v2.82a0,0,0,0,1,0,0h-.77a0,0,0,0,1,0,0Z"/><path class="cls-1" d="M51.5,29.72a2.31,2.31,0,0,1-2.35,2.51,2.24,2.24,0,0,1-2.26-2.43,2.31,2.31,0,0,1,2.34-2.51A2.24,2.24,0,0,1,51.5,29.72Zm-3.75.05c0,1,.6,1.81,1.44,1.81s1.43-.77,1.43-1.83c0-.8-.4-1.82-1.41-1.82S47.75,28.87,47.75,29.77Z"/><path class="cls-1" d="M52.58,28.68c0-.33,0-.61,0-.88a.38.38,0,0,1,.38-.4h0a.38.38,0,0,1,.38.36l0,.42h0a1.74,1.74,0,0,1,1.56-.89c.66,0,1.67.39,1.67,2v2.82h-.86V29.4c0-.76-.28-1.4-1.09-1.4a1.23,1.23,0,0,0-1.15.88,1.2,1.2,0,0,0-.06.4v2.84h-.86Z"/><path class="cls-1" d="M58.48,29.91a1.5,1.5,0,0,0,1.61,1.64,3,3,0,0,0,1.31-.24l.15.61a3.74,3.74,0,0,1-1.57.3,2.19,2.19,0,0,1-2.32-2.38,2.29,2.29,0,0,1,2.21-2.55,2,2,0,0,1,2,2.23,2.94,2.94,0,0,1,0,.39ZM61,29.3a1.21,1.21,0,0,0-1.19-1.39,1.42,1.42,0,0,0-1.32,1.39Z"/><path class="cls-1" d="M63.2,27.4l1,2.79c.11.31.22.68.3,1h0c.09-.28.19-.64.3-1l.94-2.77h.91l-1.29,3.36a7.12,7.12,0,0,1-1.62,3,2.38,2.38,0,0,1-1,.56l-.22-.73a2,2,0,0,0,.75-.42,2.52,2.52,0,0,0,.73-1,.57.57,0,0,0,.06-.21,1,1,0,0,0,0-.22L62.26,27.4Z"/><path class="cls-2" d="M22.46,5.72A9.23,9.23,0,0,1,25,6.1a7.67,7.67,0,0,1,2.08,1c.23.16.44.36.66.54a4.51,4.51,0,0,1,.8.89,5.88,5.88,0,0,1,.79,1.61,7.39,7.39,0,0,1,.28,1.4l0,.39c0,.18,0,.35,0,.53a8.74,8.74,0,0,1-.07,1c0,.42-.14.83-.23,1.24a10.28,10.28,0,0,1-.63,1.79,14.59,14.59,0,0,1-1,1.95,18.6,18.6,0,0,1-1.22,1.69q-.3.38-.63.72c-.31.33-.62.66-.95,1s-.56.5-.85.75-.66.56-1,.82-.94.73-1.42,1.07-.73.53-1.11.77a17.74,17.74,0,0,1-1.63.95,10.81,10.81,0,0,1-2.51,1c-.28.06-.57.08-.85.12A2.58,2.58,0,0,1,14,27a2.73,2.73,0,0,1-.56-.4,2.31,2.31,0,0,1-.65-1,2.23,2.23,0,0,1-.14-.67,4.12,4.12,0,0,1,.06-.93,6.44,6.44,0,0,1,.28-.88c.12-.31.26-.6.4-.89A7.58,7.58,0,0,1,14.16,21a4.43,4.43,0,0,1,.76-.8,3.82,3.82,0,0,1,.72-.49,2.89,2.89,0,0,1,1.78-.29,2.17,2.17,0,0,1,1,.37.89.89,0,0,1,.42.91,1.15,1.15,0,0,1-.12.37,3.69,3.69,0,0,1-.53.76c-.58.63-1.21,1.2-1.8,1.82a7.79,7.79,0,0,0-1.15,1.46,1.94,1.94,0,0,0-.26.61c-.09.51.25.81.75.76a4.61,4.61,0,0,0,1.38-.43,15.21,15.21,0,0,0,2.38-1.38c.59-.41,1.16-.85,1.73-1.29.3-.24.57-.51.86-.75a19.44,19.44,0,0,0,1.46-1.41,14.16,14.16,0,0,0,1.71-2.15A8.7,8.7,0,0,0,26.48,16a4,4,0,0,0,.07-1A3.92,3.92,0,0,0,26,13.09a2,2,0,0,0-1.24-.88,2.59,2.59,0,0,0-.56-.05,4.3,4.3,0,0,0-1.42.26,7.15,7.15,0,0,0-.77.29l-1,.5a21.53,21.53,0,0,0-1.86,1.09l-2.16,1.4c-.82.55-1.63,1.11-2.41,1.71-.46.36-.94.69-1.42,1a6.85,6.85,0,0,1-1.42.74,3.21,3.21,0,0,1-2,.14A2.13,2.13,0,0,1,9,19a3.78,3.78,0,0,1-.73-.59,2.48,2.48,0,0,1-.62-1.09,2.33,2.33,0,0,1-.11-.74,3.92,3.92,0,0,1,.16-1.08,6.81,6.81,0,0,1,.86-1.78c.28-.42.58-.82.89-1.22.16-.2.34-.39.52-.58s.51-.53.78-.78.53-.49.81-.71.76-.61,1.16-.9,1-.64,1.44-1a17.43,17.43,0,0,1,2.07-1.14c.52-.25,1.06-.47,1.59-.69.37-.15.75-.28,1.13-.4a10.93,10.93,0,0,1,1.79-.46c.33-.06.66-.1,1-.14S22.21,5.74,22.46,5.72Z"/><path class="cls-2" d="M38.59,16.84a3.67,3.67,0,0,0-.06-1.05,1,1,0,0,0-.69-.68,3,3,0,0,0-1.11,0,6.21,6.21,0,0,0-1.89.59l-.19.09A13,13,0,0,1,34,14.28l.42-.21a7.78,7.78,0,0,1,2.2-.72A4.93,4.93,0,0,1,39,13.5a2.87,2.87,0,0,1,2,2.33,7,7,0,0,1,.07.8V21.7a.42.42,0,0,1-.16.35,5.36,5.36,0,0,1-2.58,1.24,6.58,6.58,0,0,1-1.59.14,3.66,3.66,0,0,1-2.7-1.28,3.22,3.22,0,0,1-.45-3.54,3,3,0,0,1,1.69-1.45,5.13,5.13,0,0,1,1.82-.32h1.47Zm0,1.68H37.3a.86.86,0,0,0-.17,0,1.45,1.45,0,0,0-1.15,1,2,2,0,0,0,0,1.37,1.23,1.23,0,0,0,1,.81,2.43,2.43,0,0,0,1.45-.22c.1,0,.12-.11.12-.22V18.67A.81.81,0,0,0,38.58,18.52Z"/><path class="cls-2" d="M67,22.3a6.72,6.72,0,0,1-1.4.74,5.85,5.85,0,0,1-2.78.39,3.79,3.79,0,0,1-3.2-2.31,6.07,6.07,0,0,1-.54-3,6.59,6.59,0,0,1,.53-2.4A4.06,4.06,0,0,1,60.92,14a3.4,3.4,0,0,1,1.77-.62,4.76,4.76,0,0,1,1.55.11,3,3,0,0,1,2.12,1.82A5.67,5.67,0,0,1,66.8,17c0,.48.07,1,.1,1.45a.64.64,0,0,1,0,.19H61.58a2.71,2.71,0,0,0,0,.4,4.57,4.57,0,0,0,.21,1.42,1.65,1.65,0,0,0,1.51,1.22,4.39,4.39,0,0,0,2.23-.4c.25-.11.48-.25.75-.39Zm-5.3-5.2h2.66l0-.05a3,3,0,0,0-.22-1.19,1.07,1.07,0,0,0-.52-.57,1.24,1.24,0,0,0-1.49.35,2.13,2.13,0,0,0-.3.58A2.85,2.85,0,0,0,61.65,17.1Z"/><path class="cls-2" d="M54,11.15l2.51-.41c0,.91,0,1.8,0,2.71h1.6a15.18,15.18,0,0,1,0,1.8H56.51c0,.06,0,.11,0,.16v5a2.28,2.28,0,0,0,0,.45,1,1,0,0,0,.87.84,4.38,4.38,0,0,0,.52,0,1.08,1.08,0,0,0,.18,0,13,13,0,0,1,0,1.53,5,5,0,0,1-1.45.06,3.72,3.72,0,0,1-1-.21,2.46,2.46,0,0,1-1.62-2,4.77,4.77,0,0,1-.08-.92q0-4.45,0-8.9Z"/><path class="cls-2" d="M72.5,21.72v1.54l-.32,0a4.45,4.45,0,0,1-1.92-.13,2.37,2.37,0,0,1-1.72-1.87,4.39,4.39,0,0,1-.11-1.09V11.33a1.09,1.09,0,0,1,0-.18l2.45-.42V11q0,4.69,0,9.39a3.31,3.31,0,0,0,0,.55.83.83,0,0,0,.57.69,2.1,2.1,0,0,0,.74.13Z"/><path class="cls-2" d="M49.91,23.25h-2.5a.76.76,0,0,1,0-.15V15.35a.27.27,0,0,1,.07-.22,5.87,5.87,0,0,1,2.87-1.68,5.27,5.27,0,0,1,2.73.05l.23.09-.69,1.55a3.24,3.24,0,0,0-1.07-.09,2.91,2.91,0,0,0-1.46.48.34.34,0,0,0-.17.33v7.39Z"/><path class="cls-2" d="M45.4,13.45v9.8H43v-9.4Z"/><path class="cls-2" d="M44.18,12.65a1.56,1.56,0,0,1-1.56-1.54,1.59,1.59,0,0,1,1.6-1.59,1.57,1.57,0,0,1,0,3.13Z"/><path class="cls-2" d="M39.09,28.68c0-.33,0-.62,0-.89a.37.37,0,0,1,.37-.39h0a.37.37,0,0,1,.37.35l0,.41h0a1.65,1.65,0,0,1,1.49-.87,1.38,1.38,0,0,1,1.33.95h0a1.93,1.93,0,0,1,.53-.62,1.62,1.62,0,0,1,1-.33c.63,0,1.55.41,1.55,2.05v2.75a0,0,0,0,1,0,0H45a0,0,0,0,1,0,0V29.45c0-.91-.33-1.46-1-1.46a1.1,1.1,0,0,0-1,.78,1.43,1.43,0,0,0-.07.43v2.89a0,0,0,0,1,0,0h-.77a0,0,0,0,1,0,0v-2.8c0-.75-.33-1.3-1-1.3a1.18,1.18,0,0,0-1.06.86,1.16,1.16,0,0,0-.07.42v2.82a0,0,0,0,1,0,0h-.77a0,0,0,0,1,0,0Z"/><path class="cls-2" d="M51.5,29.72a2.31,2.31,0,0,1-2.35,2.51,2.24,2.24,0,0,1-2.26-2.43,2.31,2.31,0,0,1,2.34-2.51A2.24,2.24,0,0,1,51.5,29.72Zm-3.75.05c0,1,.6,1.81,1.44,1.81s1.43-.77,1.43-1.83c0-.8-.4-1.82-1.41-1.82S47.75,28.87,47.75,29.77Z"/><path class="cls-2" d="M52.58,28.68c0-.33,0-.61,0-.88a.38.38,0,0,1,.38-.4h0a.38.38,0,0,1,.38.36l0,.42h0a1.74,1.74,0,0,1,1.56-.89c.66,0,1.67.39,1.67,2v2.82h-.86V29.4c0-.76-.28-1.4-1.09-1.4a1.23,1.23,0,0,0-1.15.88,1.2,1.2,0,0,0-.06.4v2.84h-.86Z"/><path class="cls-2" d="M58.48,29.91a1.5,1.5,0,0,0,1.61,1.64,3,3,0,0,0,1.31-.24l.15.61a3.74,3.74,0,0,1-1.57.3,2.19,2.19,0,0,1-2.32-2.38,2.29,2.29,0,0,1,2.21-2.55,2,2,0,0,1,2,2.23,2.94,2.94,0,0,1,0,.39ZM61,29.3a1.21,1.21,0,0,0-1.19-1.39,1.42,1.42,0,0,0-1.32,1.39Z"/><path class="cls-2" d="M63.2,27.4l1,2.79c.11.31.22.68.3,1h0c.09-.28.19-.64.3-1l.94-2.77h.91l-1.29,3.36a7.12,7.12,0,0,1-1.62,3,2.38,2.38,0,0,1-1,.56l-.22-.73a2,2,0,0,0,.75-.42,2.52,2.52,0,0,0,.73-1,.57.57,0,0,0,.06-.21,1,1,0,0,0,0-.22L62.26,27.4Z"/></svg>