<svg id="Layer_1" data-name="Layer 1" xmlns="http://www.w3.org/2000/svg" xmlns:xlink="http://www.w3.org/1999/xlink" viewBox="0 0 40 40"><defs><style>.cls-1{fill:none;}.cls-2{fill:#e5e5e5;}.cls-3{fill:#fff;fill-rule:evenodd;}.cls-4{clip-path:url(#clip-path);}.cls-5{clip-path:url(#clip-path-2);}.cls-6{fill:url(#linear-gradient);}</style><clipPath id="clip-path"><rect class="cls-1" x="3.88" y="3.89" width="32.23" height="32.21"/></clipPath><clipPath id="clip-path-2"><path class="cls-1" d="M17.28,35.87a15.89,15.89,0,0,1-5.9-2.26l-6,1.19,1.18-5.9a16.12,16.12,0,1,1,10.71,7"/></clipPath><linearGradient id="linear-gradient" x1="-602.34" y1="39.5" x2="-602.31" y2="39.5" gradientTransform="matrix(669.42, 1338.85, 1338.85, -669.42, 350351.11, 832881.72)" gradientUnits="userSpaceOnUse"><stop offset="0" stop-color="#58d265"/><stop offset="0.13" stop-color="#58d265"/><stop offset="0.16" stop-color="#58d265"/><stop offset="0.16" stop-color="#58d265"/><stop offset="0.17" stop-color="#57d264"/><stop offset="0.18" stop-color="#57d164"/><stop offset="0.19" stop-color="#56d164"/><stop offset="0.2" stop-color="#56d163"/><stop offset="0.2" stop-color="#55d063"/><stop offset="0.21" stop-color="#55d062"/><stop offset="0.22" stop-color="#54d062"/><stop offset="0.23" stop-color="#53cf62"/><stop offset="0.23" stop-color="#53cf61"/><stop offset="0.24" stop-color="#52cf61"/><stop offset="0.25" stop-color="#52ce60"/><stop offset="0.26" stop-color="#51ce60"/><stop offset="0.27" stop-color="#51ce5f"/><stop offset="0.27" stop-color="#50cd5f"/><stop offset="0.28" stop-color="#50cd5f"/><stop offset="0.29" stop-color="#4fcd5e"/><stop offset="0.3" stop-color="#4fcd5e"/><stop offset="0.3" stop-color="#4ecc5d"/><stop offset="0.31" stop-color="#4ecc5d"/><stop offset="0.32" stop-color="#4dcc5d"/><stop offset="0.33" stop-color="#4ccb5c"/><stop offset="0.34" stop-color="#4ccb5c"/><stop offset="0.34" stop-color="#4bcb5b"/><stop offset="0.35" stop-color="#4bca5b"/><stop offset="0.36" stop-color="#4aca5a"/><stop offset="0.37" stop-color="#4aca5a"/><stop offset="0.38" stop-color="#49c95a"/><stop offset="0.38" stop-color="#49c959"/><stop offset="0.39" stop-color="#48c959"/><stop offset="0.4" stop-color="#48c858"/><stop offset="0.41" stop-color="#47c858"/><stop offset="0.41" stop-color="#46c858"/><stop offset="0.42" stop-color="#46c757"/><stop offset="0.43" stop-color="#45c757"/><stop offset="0.44" stop-color="#45c756"/><stop offset="0.45" stop-color="#44c756"/><stop offset="0.45" stop-color="#44c655"/><stop offset="0.46" stop-color="#43c655"/><stop offset="0.47" stop-color="#43c655"/><stop offset="0.48" stop-color="#42c554"/><stop offset="0.48" stop-color="#42c554"/><stop offset="0.49" stop-color="#41c553"/><stop offset="0.5" stop-color="#41c453"/><stop offset="0.51" stop-color="#40c452"/><stop offset="0.52" stop-color="#3fc452"/><stop offset="0.52" stop-color="#3fc352"/><stop offset="0.53" stop-color="#3ec351"/><stop offset="0.54" stop-color="#3ec351"/><stop offset="0.55" stop-color="#3dc250"/><stop offset="0.55" stop-color="#3dc250"/><stop offset="0.56" stop-color="#3cc250"/><stop offset="0.57" stop-color="#3cc14f"/><stop offset="0.58" stop-color="#3bc14f"/><stop offset="0.59" stop-color="#3bc14e"/><stop offset="0.59" stop-color="#3ac14e"/><stop offset="0.6" stop-color="#3ac04d"/><stop offset="0.61" stop-color="#39c04d"/><stop offset="0.62" stop-color="#38c04d"/><stop offset="0.63" stop-color="#38bf4c"/><stop offset="0.63" stop-color="#37bf4c"/><stop offset="0.64" stop-color="#37bf4b"/><stop offset="0.65" stop-color="#36be4b"/><stop offset="0.66" stop-color="#36be4b"/><stop offset="0.66" stop-color="#35be4a"/><stop offset="0.67" stop-color="#35bd4a"/><stop offset="0.68" stop-color="#34bd49"/><stop offset="0.69" stop-color="#34bd49"/><stop offset="0.7" stop-color="#33bc48"/><stop offset="0.7" stop-color="#32bc48"/><stop offset="0.71" stop-color="#32bc48"/><stop offset="0.72" stop-color="#31bb47"/><stop offset="0.73" stop-color="#31bb47"/><stop offset="0.73" stop-color="#30bb46"/><stop offset="0.74" stop-color="#30bb46"/><stop offset="0.75" stop-color="#2fba46"/><stop offset="0.76" stop-color="#2fba45"/><stop offset="0.77" stop-color="#2eba45"/><stop offset="0.77" stop-color="#2eb944"/><stop offset="0.78" stop-color="#2db944"/><stop offset="0.79" stop-color="#2db943"/><stop offset="0.8" stop-color="#2cb843"/><stop offset="0.8" stop-color="#2bb843"/><stop offset="0.81" stop-color="#2bb842"/><stop offset="0.82" stop-color="#2ab742"/><stop offset="0.83" stop-color="#2ab741"/><stop offset="0.84" stop-color="#29b741"/><stop offset="0.84" stop-color="#29b641"/><stop offset="0.88" stop-color="#28b640"/><stop offset="1" stop-color="#28b640"/></linearGradient></defs><path class="cls-2" d="M20,39.5a19.54,19.54,0,0,1-9.25-2.33L1.09,39.1,3,29.55a19.5,19.5,0,1,1,17,10"/><path class="cls-3" d="M33.79,6.21A19.5,19.5,0,0,0,3,29.55L1.09,39.1l9.66-1.93a19.5,19.5,0,0,0,23-31"/><g class="cls-4"><g class="cls-5"><path class="cls-6" d="M30.77-11.48-10.6,9.2,10.06,50.53,51.44,29.84Z"/></g></g><path class="cls-3" d="M27.35,22.88a3.31,3.31,0,0,0-2.84-.64c-.74.3-1.21,1.45-1.69,2a.71.71,0,0,1-.92.2A12.84,12.84,0,0,1,15.48,19a.79.79,0,0,1,.1-1.08A4.4,4.4,0,0,0,16.75,16a4.12,4.12,0,0,0-.53-2.24,5.27,5.27,0,0,0-1.65-2.5,2.28,2.28,0,0,0-2.47.37,5,5,0,0,0-1.73,4,6,6,0,0,0,.16,1.26,10.36,10.36,0,0,0,1.2,2.78A22.5,22.5,0,0,0,13,21.55a19.26,19.26,0,0,0,5.46,5.07,16.14,16.14,0,0,0,3.41,1.62,7.63,7.63,0,0,0,4,.63,4.8,4.8,0,0,0,3.59-2.67,2.32,2.32,0,0,0,.17-1.37c-.21-.94-1.48-1.5-2.24-1.95"/></svg>